<mxfile host="app.diagrams.net" agent="Mozilla/5.0 (Windows NT 10.0; Win64; x64) AppleWebKit/537.36 (KHTML, like Gecko) Chrome/131.0.0.0 Safari/537.36" version="24.8.6">
  <diagram id="C5RBs43oDa-KdzZeNtuy" name="Page-1">
    <mxGraphModel dx="3096" dy="1274" grid="1" gridSize="10" guides="1" tooltips="1" connect="1" arrows="1" fold="1" page="1" pageScale="1" pageWidth="827" pageHeight="1169" math="0" shadow="0">
      <root>
        <mxCell id="WIyWlLk6GJQsqaUBKTNV-0" />
        <mxCell id="WIyWlLk6GJQsqaUBKTNV-1" parent="WIyWlLk6GJQsqaUBKTNV-0" />
        <mxCell id="oaeBS7ytQZiVfYPkKsX--1" value="Mulai" style="strokeWidth=2;html=1;shape=mxgraph.flowchart.terminator;whiteSpace=wrap;" vertex="1" parent="WIyWlLk6GJQsqaUBKTNV-1">
          <mxGeometry x="350" y="20" width="100" height="60" as="geometry" />
        </mxCell>
        <mxCell id="oaeBS7ytQZiVfYPkKsX--2" value="" style="endArrow=classic;html=1;rounded=0;exitX=0.5;exitY=1;exitDx=0;exitDy=0;exitPerimeter=0;" edge="1" parent="WIyWlLk6GJQsqaUBKTNV-1" source="oaeBS7ytQZiVfYPkKsX--10" target="oaeBS7ytQZiVfYPkKsX--3">
          <mxGeometry width="50" height="50" relative="1" as="geometry">
            <mxPoint x="400" y="120" as="sourcePoint" />
            <mxPoint x="400" y="120" as="targetPoint" />
          </mxGeometry>
        </mxCell>
        <mxCell id="oaeBS7ytQZiVfYPkKsX--3" value="Input Pilihan :&lt;div&gt;1. Login&lt;/div&gt;&lt;div&gt;2. Register&lt;/div&gt;&lt;div&gt;3. Kembali&lt;/div&gt;" style="shape=parallelogram;perimeter=parallelogramPerimeter;whiteSpace=wrap;html=1;fixedSize=1;" vertex="1" parent="WIyWlLk6GJQsqaUBKTNV-1">
          <mxGeometry x="340" y="180" width="120" height="60" as="geometry" />
        </mxCell>
        <mxCell id="oaeBS7ytQZiVfYPkKsX--4" value="Pilihan == 1" style="rhombus;whiteSpace=wrap;html=1;shadow=1;" vertex="1" parent="WIyWlLk6GJQsqaUBKTNV-1">
          <mxGeometry x="360" y="280" width="80" height="80" as="geometry" />
        </mxCell>
        <mxCell id="oaeBS7ytQZiVfYPkKsX--34" value="" style="edgeStyle=orthogonalEdgeStyle;rounded=0;orthogonalLoop=1;jettySize=auto;html=1;" edge="1" parent="WIyWlLk6GJQsqaUBKTNV-1" source="oaeBS7ytQZiVfYPkKsX--8" target="oaeBS7ytQZiVfYPkKsX--33">
          <mxGeometry relative="1" as="geometry" />
        </mxCell>
        <mxCell id="oaeBS7ytQZiVfYPkKsX--8" value="Login" style="rounded=0;whiteSpace=wrap;html=1;" vertex="1" parent="WIyWlLk6GJQsqaUBKTNV-1">
          <mxGeometry x="340" y="380" width="120" height="60" as="geometry" />
        </mxCell>
        <mxCell id="oaeBS7ytQZiVfYPkKsX--11" value="" style="endArrow=classic;html=1;rounded=0;exitX=0.5;exitY=1;exitDx=0;exitDy=0;exitPerimeter=0;" edge="1" parent="WIyWlLk6GJQsqaUBKTNV-1" source="oaeBS7ytQZiVfYPkKsX--1" target="oaeBS7ytQZiVfYPkKsX--10">
          <mxGeometry width="50" height="50" relative="1" as="geometry">
            <mxPoint x="400" y="80" as="sourcePoint" />
            <mxPoint x="400" y="180" as="targetPoint" />
          </mxGeometry>
        </mxCell>
        <mxCell id="oaeBS7ytQZiVfYPkKsX--10" value="Tampilan Awal Aplikasi" style="strokeWidth=2;html=1;shape=mxgraph.flowchart.display;whiteSpace=wrap;" vertex="1" parent="WIyWlLk6GJQsqaUBKTNV-1">
          <mxGeometry x="350" y="100" width="100" height="60" as="geometry" />
        </mxCell>
        <mxCell id="oaeBS7ytQZiVfYPkKsX--14" value="" style="endArrow=classic;html=1;rounded=0;exitX=0.5;exitY=1;exitDx=0;exitDy=0;entryX=0.5;entryY=0;entryDx=0;entryDy=0;" edge="1" parent="WIyWlLk6GJQsqaUBKTNV-1" source="oaeBS7ytQZiVfYPkKsX--3" target="oaeBS7ytQZiVfYPkKsX--4">
          <mxGeometry width="50" height="50" relative="1" as="geometry">
            <mxPoint x="510" y="300" as="sourcePoint" />
            <mxPoint x="560" y="250" as="targetPoint" />
          </mxGeometry>
        </mxCell>
        <mxCell id="oaeBS7ytQZiVfYPkKsX--26" value="" style="edgeStyle=orthogonalEdgeStyle;rounded=0;orthogonalLoop=1;jettySize=auto;html=1;fillColor=#e3c800;strokeColor=#B09500;" edge="1" parent="WIyWlLk6GJQsqaUBKTNV-1" source="oaeBS7ytQZiVfYPkKsX--15" target="oaeBS7ytQZiVfYPkKsX--16">
          <mxGeometry relative="1" as="geometry" />
        </mxCell>
        <mxCell id="oaeBS7ytQZiVfYPkKsX--15" value="Pilihan == 2" style="rhombus;whiteSpace=wrap;html=1;shadow=1;" vertex="1" parent="WIyWlLk6GJQsqaUBKTNV-1">
          <mxGeometry x="550" y="280" width="80" height="80" as="geometry" />
        </mxCell>
        <mxCell id="oaeBS7ytQZiVfYPkKsX--16" value="Registrasi" style="rounded=0;whiteSpace=wrap;html=1;" vertex="1" parent="WIyWlLk6GJQsqaUBKTNV-1">
          <mxGeometry x="530" y="380" width="120" height="60" as="geometry" />
        </mxCell>
        <mxCell id="oaeBS7ytQZiVfYPkKsX--17" value="" style="endArrow=classic;html=1;rounded=0;entryX=0;entryY=0.5;entryDx=0;entryDy=0;strokeColor=#B20000;fillColor=#e51400;" edge="1" parent="WIyWlLk6GJQsqaUBKTNV-1" target="oaeBS7ytQZiVfYPkKsX--15">
          <mxGeometry width="50" height="50" relative="1" as="geometry">
            <mxPoint x="440" y="319.68" as="sourcePoint" />
            <mxPoint x="540" y="319.68" as="targetPoint" />
          </mxGeometry>
        </mxCell>
        <mxCell id="oaeBS7ytQZiVfYPkKsX--18" value="Pilihan == 3" style="rhombus;whiteSpace=wrap;html=1;shadow=1;" vertex="1" parent="WIyWlLk6GJQsqaUBKTNV-1">
          <mxGeometry x="700" y="280" width="80" height="80" as="geometry" />
        </mxCell>
        <mxCell id="oaeBS7ytQZiVfYPkKsX--19" value="" style="endArrow=classic;html=1;rounded=0;fillColor=#e51400;strokeColor=#B20000;" edge="1" parent="WIyWlLk6GJQsqaUBKTNV-1">
          <mxGeometry width="50" height="50" relative="1" as="geometry">
            <mxPoint x="630" y="319.74" as="sourcePoint" />
            <mxPoint x="700" y="320" as="targetPoint" />
          </mxGeometry>
        </mxCell>
        <mxCell id="oaeBS7ytQZiVfYPkKsX--20" value="" style="endArrow=classic;html=1;rounded=0;fillColor=#e51400;strokeColor=#B20000;entryX=1;entryY=0.5;entryDx=0;entryDy=0;" edge="1" parent="WIyWlLk6GJQsqaUBKTNV-1" target="oaeBS7ytQZiVfYPkKsX--3">
          <mxGeometry width="50" height="50" relative="1" as="geometry">
            <mxPoint x="740" y="279.43" as="sourcePoint" />
            <mxPoint x="740" y="210" as="targetPoint" />
            <Array as="points">
              <mxPoint x="740" y="210" />
            </Array>
          </mxGeometry>
        </mxCell>
        <mxCell id="oaeBS7ytQZiVfYPkKsX--22" value="" style="endArrow=classic;html=1;rounded=0;exitX=0.5;exitY=1;exitDx=0;exitDy=0;fillColor=#e3c800;strokeColor=#B09500;" edge="1" parent="WIyWlLk6GJQsqaUBKTNV-1">
          <mxGeometry width="50" height="50" relative="1" as="geometry">
            <mxPoint x="399.7" y="360" as="sourcePoint" />
            <mxPoint x="400" y="380" as="targetPoint" />
          </mxGeometry>
        </mxCell>
        <mxCell id="oaeBS7ytQZiVfYPkKsX--28" value="" style="endArrow=classic;html=1;rounded=0;fillColor=#e3c800;strokeColor=#B09500;entryX=1;entryY=0.5;entryDx=0;entryDy=0;entryPerimeter=0;exitX=1;exitY=0.5;exitDx=0;exitDy=0;" edge="1" parent="WIyWlLk6GJQsqaUBKTNV-1" source="oaeBS7ytQZiVfYPkKsX--18" target="oaeBS7ytQZiVfYPkKsX--10">
          <mxGeometry width="50" height="50" relative="1" as="geometry">
            <mxPoint x="800" y="319.43" as="sourcePoint" />
            <mxPoint x="510" y="250" as="targetPoint" />
            <Array as="points">
              <mxPoint x="800" y="320" />
              <mxPoint x="800" y="130" />
            </Array>
          </mxGeometry>
        </mxCell>
        <mxCell id="oaeBS7ytQZiVfYPkKsX--32" value="" style="endArrow=classic;html=1;rounded=0;exitX=0;exitY=0.5;exitDx=0;exitDy=0;entryX=0.75;entryY=1;entryDx=0;entryDy=0;" edge="1" parent="WIyWlLk6GJQsqaUBKTNV-1" source="oaeBS7ytQZiVfYPkKsX--16" target="oaeBS7ytQZiVfYPkKsX--3">
          <mxGeometry width="50" height="50" relative="1" as="geometry">
            <mxPoint x="460" y="470" as="sourcePoint" />
            <mxPoint x="540" y="470" as="targetPoint" />
          </mxGeometry>
        </mxCell>
        <mxCell id="oaeBS7ytQZiVfYPkKsX--38" value="" style="edgeStyle=orthogonalEdgeStyle;rounded=0;orthogonalLoop=1;jettySize=auto;html=1;fillColor=#e51400;strokeColor=#B20000;" edge="1" parent="WIyWlLk6GJQsqaUBKTNV-1" source="oaeBS7ytQZiVfYPkKsX--33" target="oaeBS7ytQZiVfYPkKsX--37">
          <mxGeometry relative="1" as="geometry" />
        </mxCell>
        <mxCell id="oaeBS7ytQZiVfYPkKsX--42" value="" style="edgeStyle=orthogonalEdgeStyle;rounded=0;orthogonalLoop=1;jettySize=auto;html=1;" edge="1" parent="WIyWlLk6GJQsqaUBKTNV-1" source="oaeBS7ytQZiVfYPkKsX--33" target="oaeBS7ytQZiVfYPkKsX--41">
          <mxGeometry relative="1" as="geometry" />
        </mxCell>
        <mxCell id="oaeBS7ytQZiVfYPkKsX--33" value="Admin" style="rhombus;whiteSpace=wrap;html=1;rounded=0;" vertex="1" parent="WIyWlLk6GJQsqaUBKTNV-1">
          <mxGeometry x="360" y="510" width="80" height="80" as="geometry" />
        </mxCell>
        <mxCell id="oaeBS7ytQZiVfYPkKsX--40" value="" style="edgeStyle=orthogonalEdgeStyle;rounded=0;orthogonalLoop=1;jettySize=auto;html=1;entryX=0;entryY=0.25;entryDx=0;entryDy=0;fillColor=#e51400;strokeColor=#B20000;" edge="1" parent="WIyWlLk6GJQsqaUBKTNV-1" source="oaeBS7ytQZiVfYPkKsX--37" target="oaeBS7ytQZiVfYPkKsX--3">
          <mxGeometry relative="1" as="geometry">
            <mxPoint x="-190" y="320" as="targetPoint" />
            <Array as="points">
              <mxPoint x="-190" y="198" />
            </Array>
          </mxGeometry>
        </mxCell>
        <mxCell id="oaeBS7ytQZiVfYPkKsX--37" value="User" style="rhombus;whiteSpace=wrap;html=1;rounded=0;" vertex="1" parent="WIyWlLk6GJQsqaUBKTNV-1">
          <mxGeometry x="-230" y="510" width="80" height="80" as="geometry" />
        </mxCell>
        <mxCell id="oaeBS7ytQZiVfYPkKsX--44" value="" style="edgeStyle=orthogonalEdgeStyle;rounded=0;orthogonalLoop=1;jettySize=auto;html=1;" edge="1" parent="WIyWlLk6GJQsqaUBKTNV-1" source="oaeBS7ytQZiVfYPkKsX--41" target="oaeBS7ytQZiVfYPkKsX--43">
          <mxGeometry relative="1" as="geometry" />
        </mxCell>
        <mxCell id="oaeBS7ytQZiVfYPkKsX--41" value="1. Gudang&lt;div&gt;2. Riwayat Transaksi&lt;/div&gt;&lt;div&gt;3. Riwayat Masukkan&lt;/div&gt;&lt;div&gt;0. Keluar&lt;/div&gt;" style="shape=parallelogram;perimeter=parallelogramPerimeter;whiteSpace=wrap;html=1;fixedSize=1;rounded=0;" vertex="1" parent="WIyWlLk6GJQsqaUBKTNV-1">
          <mxGeometry x="320" y="620" width="160" height="60" as="geometry" />
        </mxCell>
        <mxCell id="oaeBS7ytQZiVfYPkKsX--46" value="" style="edgeStyle=orthogonalEdgeStyle;rounded=0;orthogonalLoop=1;jettySize=auto;html=1;" edge="1" parent="WIyWlLk6GJQsqaUBKTNV-1" source="oaeBS7ytQZiVfYPkKsX--43">
          <mxGeometry relative="1" as="geometry">
            <mxPoint x="400.0000000000002" y="810.0000000000002" as="targetPoint" />
          </mxGeometry>
        </mxCell>
        <mxCell id="oaeBS7ytQZiVfYPkKsX--43" value="1. Gudang" style="rhombus;whiteSpace=wrap;html=1;rounded=0;" vertex="1" parent="WIyWlLk6GJQsqaUBKTNV-1">
          <mxGeometry x="360" y="710" width="80" height="80" as="geometry" />
        </mxCell>
        <mxCell id="oaeBS7ytQZiVfYPkKsX--49" value="" style="edgeStyle=orthogonalEdgeStyle;rounded=0;orthogonalLoop=1;jettySize=auto;html=1;" edge="1" parent="WIyWlLk6GJQsqaUBKTNV-1" source="oaeBS7ytQZiVfYPkKsX--47" target="oaeBS7ytQZiVfYPkKsX--48">
          <mxGeometry relative="1" as="geometry" />
        </mxCell>
        <mxCell id="oaeBS7ytQZiVfYPkKsX--47" value="1. Tambah Produk&lt;div&gt;2. Hapus Produk&lt;/div&gt;&lt;div&gt;3. Edit Stok&lt;/div&gt;&lt;div&gt;4. Edit Harga&lt;/div&gt;&lt;div&gt;0. Kembali&lt;/div&gt;" style="shape=parallelogram;perimeter=parallelogramPerimeter;whiteSpace=wrap;html=1;fixedSize=1;rounded=0;" vertex="1" parent="WIyWlLk6GJQsqaUBKTNV-1">
          <mxGeometry x="320" y="810" width="160" height="80" as="geometry" />
        </mxCell>
        <mxCell id="oaeBS7ytQZiVfYPkKsX--51" value="" style="edgeStyle=orthogonalEdgeStyle;rounded=0;orthogonalLoop=1;jettySize=auto;html=1;" edge="1" parent="WIyWlLk6GJQsqaUBKTNV-1" source="oaeBS7ytQZiVfYPkKsX--48" target="oaeBS7ytQZiVfYPkKsX--50">
          <mxGeometry relative="1" as="geometry" />
        </mxCell>
        <mxCell id="oaeBS7ytQZiVfYPkKsX--56" value="" style="edgeStyle=orthogonalEdgeStyle;rounded=0;orthogonalLoop=1;jettySize=auto;html=1;" edge="1" parent="WIyWlLk6GJQsqaUBKTNV-1" source="oaeBS7ytQZiVfYPkKsX--48" target="oaeBS7ytQZiVfYPkKsX--55">
          <mxGeometry relative="1" as="geometry" />
        </mxCell>
        <mxCell id="oaeBS7ytQZiVfYPkKsX--48" value="Tambah Produk" style="rhombus;whiteSpace=wrap;html=1;rounded=0;" vertex="1" parent="WIyWlLk6GJQsqaUBKTNV-1">
          <mxGeometry x="360" y="920" width="80" height="80" as="geometry" />
        </mxCell>
        <mxCell id="oaeBS7ytQZiVfYPkKsX--53" value="" style="edgeStyle=orthogonalEdgeStyle;rounded=0;orthogonalLoop=1;jettySize=auto;html=1;entryX=0.063;entryY=0.6;entryDx=0;entryDy=0;entryPerimeter=0;exitX=0.5;exitY=1;exitDx=0;exitDy=0;" edge="1" parent="WIyWlLk6GJQsqaUBKTNV-1" source="oaeBS7ytQZiVfYPkKsX--50">
          <mxGeometry relative="1" as="geometry">
            <mxPoint x="340" y="1262.0226315789473" as="sourcePoint" />
            <mxPoint x="330.0799999999999" y="857.97" as="targetPoint" />
            <Array as="points">
              <mxPoint x="400" y="1130" />
              <mxPoint x="180" y="1130" />
              <mxPoint x="180" y="858" />
            </Array>
          </mxGeometry>
        </mxCell>
        <mxCell id="oaeBS7ytQZiVfYPkKsX--50" value="Tambah Produk" style="whiteSpace=wrap;html=1;rounded=0;" vertex="1" parent="WIyWlLk6GJQsqaUBKTNV-1">
          <mxGeometry x="340" y="1030" width="120" height="60" as="geometry" />
        </mxCell>
        <mxCell id="oaeBS7ytQZiVfYPkKsX--58" value="" style="edgeStyle=orthogonalEdgeStyle;rounded=0;orthogonalLoop=1;jettySize=auto;html=1;" edge="1" parent="WIyWlLk6GJQsqaUBKTNV-1" source="oaeBS7ytQZiVfYPkKsX--55" target="oaeBS7ytQZiVfYPkKsX--57">
          <mxGeometry relative="1" as="geometry" />
        </mxCell>
        <mxCell id="oaeBS7ytQZiVfYPkKsX--64" value="" style="edgeStyle=orthogonalEdgeStyle;rounded=0;orthogonalLoop=1;jettySize=auto;html=1;" edge="1" parent="WIyWlLk6GJQsqaUBKTNV-1" source="oaeBS7ytQZiVfYPkKsX--55" target="oaeBS7ytQZiVfYPkKsX--63">
          <mxGeometry relative="1" as="geometry" />
        </mxCell>
        <mxCell id="oaeBS7ytQZiVfYPkKsX--55" value="Hapus&lt;div&gt;&amp;nbsp;Produk&lt;/div&gt;" style="rhombus;whiteSpace=wrap;html=1;rounded=0;" vertex="1" parent="WIyWlLk6GJQsqaUBKTNV-1">
          <mxGeometry x="520" y="920" width="80" height="80" as="geometry" />
        </mxCell>
        <mxCell id="oaeBS7ytQZiVfYPkKsX--57" value="Produk Terhapus" style="whiteSpace=wrap;html=1;rounded=0;" vertex="1" parent="WIyWlLk6GJQsqaUBKTNV-1">
          <mxGeometry x="500" y="1030" width="120" height="60" as="geometry" />
        </mxCell>
        <mxCell id="oaeBS7ytQZiVfYPkKsX--62" value="" style="endArrow=none;html=1;rounded=0;entryX=0.5;entryY=1;entryDx=0;entryDy=0;" edge="1" parent="WIyWlLk6GJQsqaUBKTNV-1" target="oaeBS7ytQZiVfYPkKsX--57">
          <mxGeometry width="50" height="50" relative="1" as="geometry">
            <mxPoint x="400" y="1130" as="sourcePoint" />
            <mxPoint x="450" y="1030" as="targetPoint" />
            <Array as="points">
              <mxPoint x="560" y="1130" />
            </Array>
          </mxGeometry>
        </mxCell>
        <mxCell id="oaeBS7ytQZiVfYPkKsX--66" value="" style="edgeStyle=orthogonalEdgeStyle;rounded=0;orthogonalLoop=1;jettySize=auto;html=1;" edge="1" parent="WIyWlLk6GJQsqaUBKTNV-1" source="oaeBS7ytQZiVfYPkKsX--63" target="oaeBS7ytQZiVfYPkKsX--65">
          <mxGeometry relative="1" as="geometry" />
        </mxCell>
        <mxCell id="oaeBS7ytQZiVfYPkKsX--84" value="" style="edgeStyle=orthogonalEdgeStyle;rounded=0;orthogonalLoop=1;jettySize=auto;html=1;" edge="1" parent="WIyWlLk6GJQsqaUBKTNV-1" source="oaeBS7ytQZiVfYPkKsX--63" target="oaeBS7ytQZiVfYPkKsX--83">
          <mxGeometry relative="1" as="geometry" />
        </mxCell>
        <mxCell id="oaeBS7ytQZiVfYPkKsX--63" value="Edit Stok" style="rhombus;whiteSpace=wrap;html=1;rounded=0;" vertex="1" parent="WIyWlLk6GJQsqaUBKTNV-1">
          <mxGeometry x="680" y="920" width="80" height="80" as="geometry" />
        </mxCell>
        <mxCell id="oaeBS7ytQZiVfYPkKsX--68" value="" style="edgeStyle=orthogonalEdgeStyle;rounded=0;orthogonalLoop=1;jettySize=auto;html=1;" edge="1" parent="WIyWlLk6GJQsqaUBKTNV-1" source="oaeBS7ytQZiVfYPkKsX--65" target="oaeBS7ytQZiVfYPkKsX--67">
          <mxGeometry relative="1" as="geometry" />
        </mxCell>
        <mxCell id="oaeBS7ytQZiVfYPkKsX--65" value="1. Tambah stok&lt;div&gt;2. Kurangi Stok&lt;/div&gt;&lt;div&gt;0. Kembali&lt;/div&gt;" style="shape=parallelogram;perimeter=parallelogramPerimeter;whiteSpace=wrap;html=1;fixedSize=1;rounded=0;" vertex="1" parent="WIyWlLk6GJQsqaUBKTNV-1">
          <mxGeometry x="660" y="1030" width="120" height="60" as="geometry" />
        </mxCell>
        <mxCell id="oaeBS7ytQZiVfYPkKsX--70" value="" style="edgeStyle=orthogonalEdgeStyle;rounded=0;orthogonalLoop=1;jettySize=auto;html=1;" edge="1" parent="WIyWlLk6GJQsqaUBKTNV-1" source="oaeBS7ytQZiVfYPkKsX--67" target="oaeBS7ytQZiVfYPkKsX--69">
          <mxGeometry relative="1" as="geometry" />
        </mxCell>
        <mxCell id="oaeBS7ytQZiVfYPkKsX--74" value="" style="edgeStyle=orthogonalEdgeStyle;rounded=0;orthogonalLoop=1;jettySize=auto;html=1;" edge="1" parent="WIyWlLk6GJQsqaUBKTNV-1" source="oaeBS7ytQZiVfYPkKsX--67" target="oaeBS7ytQZiVfYPkKsX--73">
          <mxGeometry relative="1" as="geometry" />
        </mxCell>
        <mxCell id="oaeBS7ytQZiVfYPkKsX--67" value="Pilihan == 1" style="rhombus;whiteSpace=wrap;html=1;rounded=0;" vertex="1" parent="WIyWlLk6GJQsqaUBKTNV-1">
          <mxGeometry x="680" y="1120" width="80" height="80" as="geometry" />
        </mxCell>
        <mxCell id="oaeBS7ytQZiVfYPkKsX--72" value="" style="edgeStyle=orthogonalEdgeStyle;rounded=0;orthogonalLoop=1;jettySize=auto;html=1;entryX=0;entryY=0.5;entryDx=0;entryDy=0;exitX=0.5;exitY=1;exitDx=0;exitDy=0;" edge="1" parent="WIyWlLk6GJQsqaUBKTNV-1" source="oaeBS7ytQZiVfYPkKsX--69" target="oaeBS7ytQZiVfYPkKsX--65">
          <mxGeometry relative="1" as="geometry">
            <mxPoint x="640" y="1040" as="targetPoint" />
            <Array as="points">
              <mxPoint x="720" y="1310" />
              <mxPoint x="640" y="1310" />
              <mxPoint x="640" y="1060" />
            </Array>
          </mxGeometry>
        </mxCell>
        <mxCell id="oaeBS7ytQZiVfYPkKsX--69" value="Tambah Stok" style="whiteSpace=wrap;html=1;rounded=0;" vertex="1" parent="WIyWlLk6GJQsqaUBKTNV-1">
          <mxGeometry x="660" y="1220" width="120" height="60" as="geometry" />
        </mxCell>
        <mxCell id="oaeBS7ytQZiVfYPkKsX--76" value="" style="edgeStyle=orthogonalEdgeStyle;rounded=0;orthogonalLoop=1;jettySize=auto;html=1;" edge="1" parent="WIyWlLk6GJQsqaUBKTNV-1" source="oaeBS7ytQZiVfYPkKsX--73" target="oaeBS7ytQZiVfYPkKsX--75">
          <mxGeometry relative="1" as="geometry" />
        </mxCell>
        <mxCell id="oaeBS7ytQZiVfYPkKsX--79" value="" style="edgeStyle=orthogonalEdgeStyle;rounded=0;orthogonalLoop=1;jettySize=auto;html=1;" edge="1" parent="WIyWlLk6GJQsqaUBKTNV-1" source="oaeBS7ytQZiVfYPkKsX--73" target="oaeBS7ytQZiVfYPkKsX--78">
          <mxGeometry relative="1" as="geometry" />
        </mxCell>
        <mxCell id="oaeBS7ytQZiVfYPkKsX--73" value="Pilihan == 2" style="rhombus;whiteSpace=wrap;html=1;rounded=0;" vertex="1" parent="WIyWlLk6GJQsqaUBKTNV-1">
          <mxGeometry x="840" y="1120" width="80" height="80" as="geometry" />
        </mxCell>
        <mxCell id="oaeBS7ytQZiVfYPkKsX--75" value="Kurangi Stok" style="whiteSpace=wrap;html=1;rounded=0;" vertex="1" parent="WIyWlLk6GJQsqaUBKTNV-1">
          <mxGeometry x="820" y="1220" width="120" height="60" as="geometry" />
        </mxCell>
        <mxCell id="oaeBS7ytQZiVfYPkKsX--77" value="" style="endArrow=none;html=1;rounded=0;exitX=0.582;exitY=1.005;exitDx=0;exitDy=0;exitPerimeter=0;" edge="1" parent="WIyWlLk6GJQsqaUBKTNV-1" source="oaeBS7ytQZiVfYPkKsX--75">
          <mxGeometry width="50" height="50" relative="1" as="geometry">
            <mxPoint x="840" y="1280" as="sourcePoint" />
            <mxPoint x="720" y="1310" as="targetPoint" />
            <Array as="points">
              <mxPoint x="890" y="1310" />
            </Array>
          </mxGeometry>
        </mxCell>
        <mxCell id="oaeBS7ytQZiVfYPkKsX--81" value="" style="edgeStyle=orthogonalEdgeStyle;rounded=0;orthogonalLoop=1;jettySize=auto;html=1;" edge="1" parent="WIyWlLk6GJQsqaUBKTNV-1" source="oaeBS7ytQZiVfYPkKsX--78">
          <mxGeometry relative="1" as="geometry">
            <mxPoint x="470" y="850" as="targetPoint" />
            <Array as="points">
              <mxPoint x="1090" y="1160" />
              <mxPoint x="1090" y="850" />
            </Array>
          </mxGeometry>
        </mxCell>
        <mxCell id="oaeBS7ytQZiVfYPkKsX--78" value="Pilihan == 0" style="rhombus;whiteSpace=wrap;html=1;rounded=0;" vertex="1" parent="WIyWlLk6GJQsqaUBKTNV-1">
          <mxGeometry x="1000" y="1120" width="80" height="80" as="geometry" />
        </mxCell>
        <mxCell id="oaeBS7ytQZiVfYPkKsX--82" value="" style="endArrow=classic;html=1;rounded=0;entryX=1;entryY=0.5;entryDx=0;entryDy=0;exitX=0.5;exitY=0;exitDx=0;exitDy=0;" edge="1" parent="WIyWlLk6GJQsqaUBKTNV-1" source="oaeBS7ytQZiVfYPkKsX--78" target="oaeBS7ytQZiVfYPkKsX--65">
          <mxGeometry width="50" height="50" relative="1" as="geometry">
            <mxPoint x="1030" y="1110" as="sourcePoint" />
            <mxPoint x="850" y="970" as="targetPoint" />
            <Array as="points">
              <mxPoint x="1040" y="1060" />
            </Array>
          </mxGeometry>
        </mxCell>
        <mxCell id="oaeBS7ytQZiVfYPkKsX--88" value="" style="edgeStyle=orthogonalEdgeStyle;rounded=0;orthogonalLoop=1;jettySize=auto;html=1;" edge="1" parent="WIyWlLk6GJQsqaUBKTNV-1" source="oaeBS7ytQZiVfYPkKsX--83" target="oaeBS7ytQZiVfYPkKsX--87">
          <mxGeometry relative="1" as="geometry" />
        </mxCell>
        <mxCell id="oaeBS7ytQZiVfYPkKsX--92" value="" style="edgeStyle=orthogonalEdgeStyle;rounded=0;orthogonalLoop=1;jettySize=auto;html=1;" edge="1" parent="WIyWlLk6GJQsqaUBKTNV-1" source="oaeBS7ytQZiVfYPkKsX--83" target="oaeBS7ytQZiVfYPkKsX--91">
          <mxGeometry relative="1" as="geometry" />
        </mxCell>
        <mxCell id="oaeBS7ytQZiVfYPkKsX--83" value="Edit Harga" style="rhombus;whiteSpace=wrap;html=1;rounded=0;" vertex="1" parent="WIyWlLk6GJQsqaUBKTNV-1">
          <mxGeometry x="1170" y="920" width="80" height="80" as="geometry" />
        </mxCell>
        <mxCell id="oaeBS7ytQZiVfYPkKsX--90" value="" style="edgeStyle=orthogonalEdgeStyle;rounded=0;orthogonalLoop=1;jettySize=auto;html=1;entryX=1;entryY=0.25;entryDx=0;entryDy=0;exitX=1.009;exitY=0.631;exitDx=0;exitDy=0;exitPerimeter=0;" edge="1" parent="WIyWlLk6GJQsqaUBKTNV-1" source="oaeBS7ytQZiVfYPkKsX--87" target="oaeBS7ytQZiVfYPkKsX--47">
          <mxGeometry relative="1" as="geometry">
            <mxPoint x="1217.0685714285714" y="1030" as="sourcePoint" />
            <mxPoint x="479.99999999999983" y="836.8" as="targetPoint" />
            <Array as="points">
              <mxPoint x="1300" y="1068" />
              <mxPoint x="1300" y="830" />
              <mxPoint x="480" y="830" />
              <mxPoint x="480" y="831" />
            </Array>
          </mxGeometry>
        </mxCell>
        <mxCell id="oaeBS7ytQZiVfYPkKsX--87" value="Edit Harga" style="whiteSpace=wrap;html=1;rounded=0;" vertex="1" parent="WIyWlLk6GJQsqaUBKTNV-1">
          <mxGeometry x="1150" y="1030" width="120" height="60" as="geometry" />
        </mxCell>
        <mxCell id="oaeBS7ytQZiVfYPkKsX--94" value="" style="edgeStyle=orthogonalEdgeStyle;rounded=0;orthogonalLoop=1;jettySize=auto;html=1;" edge="1" parent="WIyWlLk6GJQsqaUBKTNV-1" source="oaeBS7ytQZiVfYPkKsX--91">
          <mxGeometry relative="1" as="geometry">
            <mxPoint x="470" y="650" as="targetPoint" />
            <Array as="points">
              <mxPoint x="1370" y="650" />
            </Array>
          </mxGeometry>
        </mxCell>
        <mxCell id="oaeBS7ytQZiVfYPkKsX--91" value="Kembali" style="rhombus;whiteSpace=wrap;html=1;rounded=0;" vertex="1" parent="WIyWlLk6GJQsqaUBKTNV-1">
          <mxGeometry x="1330" y="920" width="80" height="80" as="geometry" />
        </mxCell>
        <mxCell id="oaeBS7ytQZiVfYPkKsX--97" value="" style="endArrow=none;html=1;rounded=0;exitX=1;exitY=0.5;exitDx=0;exitDy=0;" edge="1" parent="WIyWlLk6GJQsqaUBKTNV-1" source="oaeBS7ytQZiVfYPkKsX--91">
          <mxGeometry width="50" height="50" relative="1" as="geometry">
            <mxPoint x="1430" y="960" as="sourcePoint" />
            <mxPoint x="1300" y="830" as="targetPoint" />
            <Array as="points">
              <mxPoint x="1430" y="960" />
              <mxPoint x="1430" y="830" />
            </Array>
          </mxGeometry>
        </mxCell>
      </root>
    </mxGraphModel>
  </diagram>
</mxfile>
